/* XPM */
static char *_47fd83365b4423ad7c043d17abbb9e9m68wMiQHZgWZpmiu[] = {
/* columns rows colors chars-per-pixel */
"16 16 50 1 ",
"  c None",
". c #48AFF6",
"X c #49AFF7",
"o c #4AAFF7",
"O c #48B0F6",
"+ c #48B0F7",
"@ c #49B0F7",
"# c #49B1F7",
"$ c #4AB0F6",
"% c #4AB0F7",
"& c #4EB1F6",
"* c #4AB0F8",
"= c #52B2F5",
"- c #50B2F7",
"; c #51B3F7",
": c #52B3F7",
"> c #5AB4F3",
", c #5AB7F7",
"< c #70BBEF",
"1 c #63BBF7",
"2 c #60B9F8",
"3 c #66BCF8",
"4 c #71C1F8",
"5 c #79C4F8",
"6 c #85C6F4",
"7 c #88C8F4",
"8 c #89CAF7",
"9 c #8ACCF9",
"0 c #8BCCF9",
"q c #8DCDF9",
"w c #8DCDFA",
"e c #9CD3FA",
"r c #B1D4EC",
"t c #B3DDFB",
"y c #BBE1FC",
"u c #CED8DF",
"i c #D7DBDD",
"p c #CCE8FC",
"a c #DAEAF6",
"s c #E3E4E4",
"d c #E4E5E5",
"f c #ECEDED",
"g c #E3EFF8",
"h c #F1F2F2",
"j c gray96",
"k c #F3F9FE",
"l c #F4FAFE",
"z c #F6FBFE",
"x c #F9FAFA",
"c c white",
/* pixels */
"     *%oo%*     ",
"   +%%%%%%%o+   ",
"  +++%XX%%%%%%  ",
" +%%+-2122:%%%+ ",
" %%%3kcccck3%%% ",
"%%%%qccccccq%%%%",
"%%%%qxjgppt-%%%%",
"+%%%7fhaye%%%%%+",
"+%%%8ccccc5++%%+",
"%%%%0cccck3%%%%%",
"%%%%6ssr4,%%%%%X",
" %%+>ui<+%%%%%o ",
" X%%%--%%%%%%%X ",
"  X%%%o%%%%%%%  ",
"   +%%%%%%%%+   ",
"     +o%%o+     "
};
