/* XPM */
static char *_5ab8dddcfd64f3cc142845b451eaa02Dt7Svic5ZJRoKfWe[] = {
/* columns rows colors chars-per-pixel */
"32 32 79 1 ",
"  c None",
". c #48AFF5",
"X c #49AFF6",
"o c #48AEF7",
"O c #48AFF7",
"+ c #49AFF7",
"@ c #4AAFF6",
"# c #4AAFF7",
"$ c #49AFF8",
"% c #49B0F6",
"& c #48B0F7",
"* c #49B0F7",
"= c #49B1F7",
"- c #4AB0F6",
"; c #4AB0F7",
": c #4AB1F7",
"> c #4CB0F6",
", c #4DB1F6",
"< c #4DB1F7",
"1 c #4FB2F7",
"2 c #48B0F8",
"3 c #49B0F8",
"4 c #49B1F8",
"5 c #4AB0F8",
"6 c #4AB1F8",
"7 c #52B3F7",
"8 c #55B4F7",
"9 c #55B5F7",
"0 c #5AB5F3",
"q c #5DB5F3",
"w c #67B8F1",
"e c #68B9F1",
"r c #62BAF8",
"t c #65BCF8",
"y c #69BDF8",
"u c #6BBEF8",
"i c #77C3F9",
"p c #88C3EB",
"a c #86C8F6",
"s c #87CAF9",
"d c #8DCDF9",
"f c #95D0F9",
"g c #99D2FA",
"h c #A7CCE5",
"j c #B6D4E9",
"k c #A3D7FA",
"l c #A4D5F8",
"z c #A9D9FA",
"x c #AFDCFB",
"c c #BDE2FB",
"v c #BEE2FB",
"b c #CBD7DF",
"n c #DBDCDD",
"m c #DCDDDD",
"M c #C7D6E0",
"N c #C0DAEB",
"B c #DFE0E0",
"V c #C3E0F5",
"C c #C2E4FB",
"Z c #CCE7FA",
"A c #CDE8FB",
"S c #CEE8FA",
"D c #CFEAFC",
"F c #D0EAFC",
"G c #D1EBFD",
"H c #D4ECFC",
"J c #D8EEFD",
"K c #DEF0FD",
"L c #E1E2E2",
"P c #E4E5E5",
"I c #EAEBEB",
"U c gray92",
"Y c #EBECEC",
"T c #EEEFEF",
"R c #EBF6FE",
"E c #F0F1F1",
"W c #F4F4F4",
"Q c #FBFBFB",
"! c white",
/* pixels */
"            3<;.$;;.            ",
"         .33;3;;3;<3>3$         ",
"       $;;;;;;;;;;$;;;<.$       ",
"      3;;;;;;;;;;;;;;3$;;;      ",
"     ;;;;;;;;;;;;;;;;;;;;;;     ",
"    ;;;;;;;;;;;;;;;;;;;;;;;;    ",
"   ;;;;;;;;;;;;;;;;;;;;;;;;;;   ",
"  .;;;;;;;;yiiiiiiiiu;;;;;;;;;  ",
"  33;;;;;7D!!!!!!!!!!H9;;;;;;;  ",
" .3>;;;;;z!!!!!!!!!!!!x;;;;;;;3 ",
" ;;;;;;;;D!!!!!!!!!!!!J;;;;;;;; ",
" ;;;;;;;;G!!!!!!!!!!!!c;;;;;;;; ",
"3;;;;;;;;G!!!!!!!!!!!Rr;;;;;;;;;",
";;;;;;;;;GQTYUUlggggd9;;;;;;;;;;",
".;;;;;;;;SBLPPPaiit;;;;;;;;;;;;.",
";;;;;;;;;NW!!!!!!!!C;;;;;;;;;;;;",
";;;;;;;;;V!!!!!!!!!!f;;;;;;;;;;;",
";;;;;;;;;S!!!!!!!!!!c;;;;;;;;;;;",
";;;;;;;;;S!!!!!!!!!!k;;;;;;;;;;;",
".;;;;;;;;S!!!!!!!!!K9;;;;;;;;;;o",
" 3;;;;;;;ZEUYYYlggs><3;;;;;;;;; ",
" 3;;;;;;;jnnmmm0;;;;;;;;;;;;;;; ",
" 3;;;;;;;pnnnnb;;;;;;;;;;;;;;;; ",
"  3;;;;;;>hnnbw;;;;;;;;;;;;;;3  ",
"  ;;;;;;;;;qe>;;;;;;;;;;;;;;;;  ",
"   ;;;;;;;;;;;;;;;;;;;;;;;;;;   ",
"    ;;;;;;;;;;;;;;;;;;;;;;;;    ",
"     ;;;;;;;;;;;;;;;;;;;;;;     ",
"      3;;;;;;;;;;;;;;;;;;;      ",
"       33;;;;;;;;;;;;;;3;       ",
"         ;;;;;3;;;;;;;;         ",
"            3;.;;;;;            "
};
