/* XPM */
static char *ff554ddb232b46f8ccfec3bc76f47627HBbcXZ2AZq5cmvah[] = {
/* columns rows colors chars-per-pixel */
"64 64 124 2 ",
"   c None",
".  c #49AEF5",
"X  c #48AEF6",
"o  c #48AFF6",
"O  c #49AFF6",
"+  c #48AFF7",
"@  c #49AFF7",
"#  c #4AAFF6",
"$  c #4AAFF7",
"%  c #49AFF8",
"&  c #4AAFF8",
"*  c #48B0F6",
"=  c #49B0F6",
"-  c #48B0F7",
";  c #49B0F7",
":  c #49B1F7",
">  c #4AB0F6",
",  c #4BB0F6",
"<  c #4AB0F7",
"1  c #4BB0F7",
"2  c #4AB1F7",
"3  c #4DB1F7",
"4  c #4EB1F6",
"5  c #4FB2F7",
"6  c #48B0F8",
"7  c #49B0F8",
"8  c #49B1F8",
"9  c #4AB0F8",
"0  c #53B2F5",
"q  c #55B3F4",
"w  c #57B4F4",
"e  c #55B5F7",
"r  c #5FB6F3",
"t  c #59B4F4",
"y  c #59B6F7",
"u  c #5BB7F7",
"i  c #71BCEF",
"p  c #72BCEF",
"a  c #64B8F2",
"s  c #60B9F7",
"d  c #68BDF8",
"f  c #6BBEF8",
"g  c #6CBEF8",
"h  c #7FC0ED",
"j  c #73C1F8",
"k  c #74C2F8",
"l  c #76C3F8",
"z  c #78C4F8",
"x  c #79C4F8",
"c  c #79C4F9",
"v  c #7AC4F8",
"b  c #7BC5F9",
"n  c #83C1EC",
"m  c #81C2EF",
"M  c #8FC5EA",
"N  c #8BC5ED",
"B  c #9DC9E7",
"V  c #92C6EA",
"C  c #8DC8F2",
"Z  c #83C8F9",
"A  c #86CAF9",
"S  c #87CAF9",
"D  c #9CD0F3",
"F  c #9BD1F7",
"G  c #9BD2F8",
"H  c #98D2FA",
"J  c #9CD2F8",
"K  c #9DD3F8",
"L  c #9CD4FA",
"P  c #9FD4FA",
"I  c #9FD5FA",
"U  c #A7CCE6",
"Y  c #AACDE5",
"T  c #B6D1E3",
"R  c #A0D5FA",
"E  c #A4D7FA",
"W  c #A4D7FB",
"Q  c #ACDAFB",
"!  c #ADDBFB",
"~  c #AEDBFB",
"^  c #B8DDF7",
"/  c #B2DDFB",
"(  c #B8E0FB",
")  c #BAE1FB",
"_  c #BEE2FC",
"`  c #D2D9DE",
"'  c #DADCDD",
"]  c #DBDCDD",
"[  c #DCDDDD",
"{  c #DDDEDE",
"}  c #C4D5E0",
"|  c #C9E7FC",
" . c #DBEFFD",
".. c #DEF0FD",
"X. c #DFF1FD",
"o. c #E0E1E1",
"O. c #E1E1E1",
"+. c #E2E3E3",
"@. c #E3E4E4",
"#. c #E9EAEA",
"$. c gray92",
"%. c #EBECEC",
"&. c #EDEEEE",
"*. c #E0F1FD",
"=. c #E3F2FD",
"-. c #E5F3FD",
";. c #E6F4FD",
":. c #EAF6FD",
">. c #E8F5FE",
",. c #EDF6FD",
"<. c gray95",
"1. c #F3F3F3",
"2. c #F6F6F6",
"3. c #F4FAFE",
"4. c #F6FBFE",
"5. c #F9F9F9",
"6. c gray98",
"7. c #FAFCFE",
"8. c #FBFDFE",
"9. c gray99",
"0. c #FCFDFE",
"q. c #FCFEFE",
"w. c #FEFEFE",
"e. c white",
/* pixels */
"                                                      6 $ < o & o & < 6 3                                                       ",
"                                            & o o 1 o 3 6 1 3 o < < < < < < < < o o                                             ",
"                                        o 3 o 3 3 6 1 6 3 o 3 6 < < < < < < < < 6 3 6 o                                         ",
"                                    o < 1 6 1 6 o 1 o 3 6 1 o 1 < < < < < < < < 1 o 3 < < <                                     ",
"                                < < < < < < < < 1 6 3 o 1 6 3 o < < < < < < < < < < < < < < < <                                 ",
"                            < < < < < < < < < < o 3 6 1 o 3 6 1 < < < < < < < < < < < < < < < < < <                             ",
"                          < < < < < < < < < < < 1 o 1 o 1 o 1 o < < < < < < < < < < < < < < < < < < <                           ",
"                      o < < < < < < < < < < < < 6 3 6 3 6 3 6 3 < < < < < < < < < < < < < < < < < < < < o                       ",
"                    < < < < < < < < < < < < < < < < < < < < < < < < < < < < < < < < < < < < < < 1 o 1 o 1 o                     ",
"                  < < < < < < < < < < < < < < < < < < < < < < < < < < < < < < < < < < < < < < < 6 3 6 3 6 < o                   ",
"                < < < < < < < < < < < < < < < < < < < < < < < < < < < < < < < < < < < < < < < < 3 o 1 6 3 o < <                 ",
"              < < < < < < < < < < < < < < < < < < < < < < < < < < < < < < < < < < < < < < < < < 6 1 o 3 6 1 < < 6               ",
"              < < < < < < < < < < < < < < < < < < < < < < < < < < < < < < < < < < < < < < < < < 3 6 3 o < < < < <               ",
"            < < < < < < < < < < < < < < < < < < < < < < < < < < < < < < < < < < < < < < < < < < o 1 6 1 < < < < < <             ",
"          < < < < < < < < < < < < < < < < < < < < < < < < < < < < < < < < < < < < < < < < < < < 1 o 3 o < < < < < < o           ",
"          < < < < < < < < < < < < < < < < < j P W W W W W W W W W W W W W W W W R b 3 < < < < < 6 3 6 1 < < < < < < 3           ",
"        < < < < < < < < < < < < < < 6 3 g X.e.e.e.e.e.e.e.e.e.e.e.e.e.e.e.e.e.e.e.e.-.j < < < < 3 6 3 o 1 6 3 6 3 o 1 o         ",
"        < < < < < < < < < < < < < < o f 3.e.e.e.e.e.e.e.e.e.e.e.e.e.e.e.e.e.e.e.e.e.e.7.b < < < o 1 6 1 o 3 o 1 6 1 o 3         ",
"      < < < < < < < < < < < < < < < 3 *.e.e.e.e.e.e.e.e.e.e.e.e.e.e.e.e.e.e.e.e.e.e.e.e.>.0 < < 1 o 3 o 1 6 1 o 3 6 3 6 <       ",
"      < < < < < < < < < < < < < < < v e.e.e.e.e.e.e.e.e.e.e.e.e.e.e.e.e.e.e.e.e.e.e.e.e.e.A < < 6 3 6 1 o 3 6 3 o 1 o 1 <       ",
"    < < < < < < < < < < < < < < < < P e.e.e.e.e.e.e.e.e.e.e.e.e.e.e.e.e.e.e.e.e.e.e.e.e.e.! 6 < 3 o 1 6 3 o 1 6 6 1 6 1 < o     ",
"    < < < < < < < < < < < < < < < < W e.e.e.e.e.e.e.e.e.e.e.e.e.e.e.e.e.e.e.e.e.e.e.e.e.e.^ < < 6 1 o 3 6 1 o 3 3 o 3 o < <     ",
"  6 < < < < < < < < < < < < < < < < W e.e.e.e.e.e.e.e.e.e.e.e.e.e.e.e.e.e.e.e.e.e.e.e.e.e.G 6 1 3 6 3 6 3 6 3 6 o 1 6 3 6 1 <   ",
"  o < < < < < < < < < < < < < < < < W e.e.e.e.e.e.e.e.e.e.e.e.e.e.e.e.e.e.e.e.e.e.e.e.e.e.s 3 o o 1 o 1 o 1 o 1 3 6 1 o 3 1 o   ",
"  3 o 1 < < < < < < < < < < < < < < W e.e.e.e.e.e.e.e.e.e.e.e.e.e.e.e.e.e.e.e.e.e.e.e.e.Q o 6 3 6 1 6 1 6 1 6 1 o 1 6 3 o 3 o   ",
"  6 3 6 < < < < < < < < < < < < < < W e.e.e.e.e.e.e.e.e.e.e.e.e.e.e.e.e.e.e.e.e.e.e.e./ 3 6 1 o 3 o 3 o 3 o 3 o 3 6 1 o 1 6 1   ",
"  1 o 1 < < < < < < < < < < < < < < W e.e.e.e.e.9.6.6.6.6.6.,.>.-.>.>.>.>.>.>.>.-._ l < o 3 o 3 o 1 6 3 o 1 6 3 o 3 o 3 3 6 6   ",
"o o 3 6 < < < < < < < < < < < < < < W e.e.1.O.[ [ [ [ ] [ [ p < 6 3 < < < < < < < < < < 1 6 1 6 3 6 1 o 3 6 1 o 1 6 1 6 o o 3 < ",
"$ 3 < < < < < < < < < < < < < < < < W e.$.[ ] [ [ [ [ [ [ [ p < < < < < < 6 6 < < < < < 6 1 6 1 o 3 o 1 6 3 o 3 6 1 6 1 1 o 1 o ",
"6 o < < < < < < < < < < < < < < < < W 1.[ [ @.%.&.&.&.&.&.&.^ W W W W W G f < < < < < < 3 o 3 o 1 6 3 6 1 o 1 6 3 o 3 o 6 3 3 & ",
"3 < < < < < < < < < < < < < < < < < W O.O.2.e.e.e.e.e.e.e.e.e.e.e.e.e.e.e.e.| u & < 6 1 o 1 6 3 6 1 o 1 6 3 6 1 o 1 6 3 6 o o 3 ",
"o < < < < < < < < < < < < < < < < < D O.9.e.e.e.e.e.e.e.e.e.e.e.e.e.e.e.e.e.e.-.u o 3 o 3 6 1 o 3 o 3 6 1 o 3 o 3 6 1 o 3 3 6 o ",
"< < < < < < < < < < < < < < < < < < N 2.e.e.e.e.e.e.e.e.e.e.e.e.e.e.e.e.e.e.e.e.) < < < < < < < < < < < < < < < < < < < < < < < ",
"< < < < < < < < < < < < < < < < < < C e.e.e.e.e.e.e.e.e.e.e.e.e.e.e.e.e.e.e.e.e.7.e < < < < < < < < < < < < < < < < < < < < < < ",
"< < < < < < < < < < < < < < < < < < F e.e.e.e.e.e.e.e.e.e.e.e.e.e.e.e.e.e.e.e.e.e.l < < < < < < < < < < < < < < < < < < < < < o ",
"< < < < < < < < < < < < < < < < < < K e.e.e.e.e.e.e.e.e.e.e.e.e.e.e.e.e.e.e.e.e.e.A < < < < < < < < < < < < < < < < < < < < < < ",
"< < < < < < < < < < < < < < < < < < J e.e.e.e.e.e.e.e.e.e.e.e.e.e.e.e.e.e.e.e.e.e.d o < < < < < < < < < < < < < o 3 o 3 < < < o ",
"  < < < < < < < < < < < < < < < < < J e.e.e.e.e.e.e.e.e.e.e.e.e.e.e.e.e.e.e.e.e.X.< < < < < < < < < < < < < < < 1 6 1 6 < < <   ",
"  < < < < < < < < < < < < < < < < < J e.e.e.e.e.e.e.e.e.e.e.e.e.e.e.e.e.e.e.e.e.x < < < < < < < < < < < < < < < 6 3 o 1 o 3 <   ",
"  < < < < < < < < < < < < < < < < < J e.e.e.e.e.e.e.e.e.e.e.e.e.e.e.e.e.e.e.3.A < < < < < < < < < < < < < < < < 1 o 3 6 1 6 o   ",
"  o < < < < < < < < < < < < < < < < J e.e.e.6.6.6.6.6.6.6.6.,.>.>.>.>.>. .~ s < < < < < < < < < < < < < < < < < 6 3 o 1 6 1 <   ",
"  o < < < < < < < < < < < < < < < < J 7.$.[ ] ] [ [ [ [ [ [ p < < < < < < < < < < < < < < < < < < < < < < < < < 1 o 3 6 3 o &   ",
"    < < < < < < < < < < < < < < < < F @.[ [ ] [ [ [ [ [ [ [ i < < < < < < < < < < < < < < < < < < < < < < < < < 6 1 6 1 < <     ",
"    < < < < < < < < < < < < < < < < n ] [ [ [ [ [ [ [ [ [ [ a o < < < < < < < < < < < < < < < < < < < < < < < < 3 o 3 o < <     ",
"      3 < < < < < < < < < < < < < < q ] [ [ [ [ [ [ [ [ [ ` 3 < < < < < < < < < < < < < < < < < < < < < < < < < < < < < <       ",
"      6 < < < < < < < < < < < < < < < U [ [ [ [ [ [ [ [ [ V o < < < < < < < < < < < < < < < < < < < < < < < < < < < < < <       ",
"      o < < < < < < < < < < < < < < < q } [ [ [ [ [ [ [ T 3 < < < < < < < < < < < < < < < < < < < < < < < < < < < < < <         ",
"        < < < < < < < < < < < < < < < < 0 Y ] [ [ [ ] B 3 3 < < < < < < < < < < < < < < < < < < < < < < < < < < < < < <         ",
"          < < < < < < < < < < < < < < < < < s n M n w o < < < < o 3 o 3 o 3 o 3 o 3 o 3 o 3 o 3 < < < < < < < < < < <           ",
"          < < < < < < < < < < < < < < < < < < < o < < < < < < < 1 6 1 6 1 6 1 6 1 6 1 6 1 6 1 6 < < < < < < < < < < <           ",
"            o < < < < < < < < < < < < < < < < < < < < < < < < < 6 3 o 1 6 3 o 1 6 3 o 1 6 3 o 1 < < < < < < < < < <             ",
"              < < < < < < < < < < < < < < < < < < < < < < < < < 1 o 3 6 1 o 3 6 1 o 3 6 1 o 3 6 < < < < < < < < <               ",
"              < < < < < < < < < < < < < < < < < < < < < < < < < 6 1 6 3 o 1 6 1 6 1 6 3 o 1 6 1 < < < < < < < < <               ",
"                o < < < < < < < < < < < < < < < < < < < < < < < 3 o 1 o 3 6 3 o 3 o 1 o 3 6 3 o < < < < < < < <                 ",
"                  6 < < < < < < < < < < < < < < < < < < < < < < o 3 6 3 o 1 o 3 o 3 6 3 o 1 o 3 < < < < < < 6                   ",
"                    o < < < < < < < < < < < < < < < < < < < < < 1 6 1 o 3 6 1 6 1 6 1 o 3 6 1 6 < < < < < <                     ",
"                      < < < < < < < < < < < < < < < < < < < < < 6 3 o 1 6 1 6 3 < < < < < < o 1 < < < < 6                       ",
"                          6 < < < < < < < < < < < < < < < < < < 1 o 3 6 3 o 1 o < < < < < < 3 6 < 6 o                           ",
"                            < < < < < < < < < < < < < < < < < < 6 1 6 1 o 3 6 3 < < < < < < < 1 < <                             ",
"                                < < < < < < < < < < < < < < < < 3 o 3 o 1 6 1 o < < < < < < < o                                 ",
"                                  & o < < < < < < < < < < < < < < < < < 6 1 6 3 < < < 6 < < <                                   ",
"                                        o < < < < < < < < < < < < < < < 3 o 1 o < < < o                                         ",
"                                            < o < < < < < < < < < < < < < < 6 3 < <                                             ",
"                                                      o < - < < < < < < <                                                       "
};
